<svg width="375" height="800" viewBox="0 0 375 800" fill="none" xmlns="http://www.w3.org/2000/svg">
<path d="M-135.593 59.6346L41.3857 -248.105L252.469 -126.712L210.093 -53.0279L83.5303 -125.814L54.1169 -74.6683L157.274 -15.3429L117.89 53.1399L14.7328 -6.18545L-51.0736 108.242L-135.593 59.6346ZM336.806 -78.2101L431.295 -23.8701L352.272 340.203L266.452 290.849L282.462 219.883L200.543 172.771L147.69 222.55L61.4368 172.946L336.806 -78.2101ZM301.43 155.809L336.44 31.7461L245.517 123.653L301.43 155.809ZM679.982 252.963C679.982 252.963 678.356 250.106 675.106 244.391C671.855 238.677 667.182 231.759 661.085 223.639C655.155 215.229 648.253 206.838 640.379 198.464C632.505 190.091 623.945 183.245 614.698 177.928C607.474 173.773 600.886 171.522 594.933 171.175C588.98 170.828 584.425 173.4 581.268 178.89C578.277 184.091 578.179 189.61 580.974 195.448C583.77 201.285 588.609 207.914 595.493 215.333C602.667 222.919 611.097 231.997 620.784 242.567C636.531 259.314 649.18 275.432 658.729 290.921C668.278 306.411 673.403 322.239 674.102 338.407C674.968 354.286 669.834 371.906 658.7 391.266C648.065 409.759 635.768 423.452 621.81 432.344C608.019 440.947 593.328 445.764 577.738 446.796C562.148 447.828 546.421 446.089 530.557 441.58C514.859 436.782 499.786 430.229 485.338 421.92C470.602 413.445 455.973 403.11 441.453 390.914C427.389 378.596 414.339 365.516 402.305 351.673C390.436 337.542 380.367 323.291 372.096 308.922L451.129 255.743C451.129 255.743 453.022 259.138 456.807 265.929C460.592 272.72 466.005 281.025 473.048 290.843C480.091 300.661 488.395 310.628 497.959 320.742C507.812 331.023 518.662 339.57 530.51 346.383C539.756 351.701 546.778 354.201 551.575 353.884C556.827 353.443 560.616 351.2 562.943 347.155C566.432 341.087 565.913 334.636 561.384 327.801C557.021 320.678 550.469 312.68 541.728 303.808C533.443 294.813 524.251 284.721 514.152 273.529C499.726 257.158 488.895 241.893 481.657 227.733C474.585 213.284 471.296 199.28 471.788 185.72C472.446 171.871 477.096 157.434 485.737 142.408C498.865 119.58 515.179 103.583 534.678 94.4173C554.177 85.2511 574.838 81.7525 596.662 83.9213C618.942 85.9673 640.195 92.8065 660.422 104.439C675.448 113.08 688.815 123.267 700.525 135C712.69 146.61 723.345 158.506 732.489 170.687C741.923 183.033 749.934 194.177 756.522 204.118L679.982 252.963ZM1091.14 355.605L914.163 663.344L829.644 614.737L898.94 494.242L795.782 434.917L726.486 555.412L641.966 506.805L818.945 199.066L903.465 247.673L838.157 361.233L941.315 420.558L1006.62 306.998L1091.14 355.605ZM-428.232 568.488L-251.253 260.749L-166.733 309.356L-343.712 617.095L-428.232 568.488ZM-153.463 729.966C-176.869 716.506 -195.615 699.958 -209.7 680.321C-223.62 660.396 -233.277 639.077 -238.672 616.363C-243.612 593.527 -244.521 570.702 -241.398 547.888C-237.821 524.952 -230.299 503.514 -218.832 483.576C-207.034 463.06 -191.916 445.799 -173.479 431.793C-155.041 417.786 -134.733 407.547 -112.555 401.076C-89.9207 394.482 -66.6585 392.479 -42.7682 395.067C-18.589 397.821 4.91447 405.762 27.7421 418.89C51.1476 432.35 69.8102 449.043 83.7298 468.969C97.8157 488.605 107.328 509.841 112.268 532.677C117.208 555.514 117.889 578.4 114.311 601.337C111.189 624.15 103.978 645.382 92.6775 665.031C81.0451 685.258 66.0103 702.375 47.5731 716.381C29.4248 730.554 9.03375 740.937 -13.6002 747.531C-35.779 754.003 -58.8967 756.089 -82.9532 753.79C-106.843 751.202 -130.347 743.261 -153.463 729.966ZM-133.511 533.798C-139.493 544.2 -143.865 555.145 -146.625 566.631C-149.219 577.828 -149.87 588.99 -148.578 600.115C-147.119 610.952 -143.385 621.174 -137.375 630.783C-130.91 640.269 -121.61 648.501 -109.474 655.481C-97.3373 662.46 -85.461 666.214 -73.8445 666.742C-62.228 667.27 -51.4312 665.212 -41.4542 660.568C-31.0221 655.801 -21.7638 649.397 -13.6794 641.357C-5.13975 633.194 2.03816 624.056 7.85437 613.943C13.8368 603.54 18.1251 592.74 20.7194 581.543C23.3137 570.345 23.8816 559.329 22.423 548.492C21.1307 537.367 17.252 527.061 10.787 517.575C4.32203 508.089 -4.83409 499.94 -16.6813 493.127C-28.8175 486.147 -40.6939 482.393 -52.3104 481.865C-63.6379 481.503 -74.4347 483.561 -84.7006 488.039C-94.8004 492.229 -104.12 498.405 -112.66 506.568C-120.744 514.608 -127.694 523.684 -133.511 533.798ZM212.272 735.54L125.278 886.809L40.7585 838.202L217.738 530.463L283.62 568.351L317.164 795.862L407.149 639.392L491.669 687.999L314.69 995.738L247.507 957.102L212.272 735.54Z" fill="#87C9F3"/>
</svg>
