<svg width="1440" height="800" viewBox="0 0 1440 800" fill="none" xmlns="http://www.w3.org/2000/svg">
<path d="M272.407 6.63456L449.386 -301.105L660.469 -179.712L618.093 -106.028L491.53 -178.814L462.117 -127.668L565.274 -68.3429L525.89 0.139942L422.733 -59.1855L356.926 55.2415L272.407 6.63456ZM744.806 -131.21L839.295 -76.8701L760.272 287.203L674.452 237.849L690.462 166.883L608.543 119.771L555.69 169.55L469.437 119.946L744.806 -131.21ZM709.43 102.809L744.44 -21.2539L653.517 70.6534L709.43 102.809ZM1087.98 199.963C1087.98 199.963 1086.36 197.106 1083.11 191.391C1079.86 185.677 1075.18 178.759 1069.09 170.639C1063.15 162.229 1056.25 153.838 1048.38 145.464C1040.5 137.091 1031.94 130.245 1022.7 124.928C1015.47 120.773 1008.89 118.522 1002.93 118.175C996.98 117.828 992.425 120.4 989.268 125.89C986.277 131.091 986.179 136.61 988.974 142.448C991.77 148.285 996.609 154.914 1003.49 162.333C1010.67 169.919 1019.1 178.997 1028.78 189.567C1044.53 206.314 1057.18 222.432 1066.73 237.921C1076.28 253.411 1081.4 269.239 1082.1 285.407C1082.97 301.286 1077.83 318.906 1066.7 338.266C1056.06 356.759 1043.77 370.452 1029.81 379.344C1016.02 387.947 1001.33 392.764 985.738 393.796C970.148 394.828 954.421 393.089 938.557 388.58C922.859 383.782 907.786 377.229 893.338 368.92C878.602 360.445 863.973 350.11 849.453 337.914C835.389 325.596 822.339 312.516 810.305 298.673C798.436 284.542 788.367 270.291 780.096 255.922L859.129 202.743C859.129 202.743 861.022 206.138 864.807 212.929C868.592 219.72 874.005 228.025 881.048 237.843C888.091 247.661 896.395 257.628 905.959 267.742C915.812 278.023 926.662 286.57 938.51 293.383C947.756 298.701 954.778 301.201 959.575 300.884C964.827 300.443 968.616 298.2 970.943 294.155C974.432 288.087 973.913 281.636 969.384 274.801C965.021 267.678 958.469 259.68 949.728 250.808C941.443 241.813 932.251 231.721 922.152 220.529C907.726 204.158 896.895 188.893 889.657 174.733C882.585 160.284 879.296 146.28 879.788 132.72C880.446 118.871 885.096 104.434 893.737 89.4079C906.865 66.5803 923.179 50.5834 942.678 41.4173C962.177 32.2511 982.838 28.7525 1004.66 30.9213C1026.94 32.9673 1048.19 39.8065 1068.42 51.439C1083.45 60.0802 1096.82 70.2673 1108.52 82.0003C1120.69 93.6104 1131.34 105.506 1140.49 117.687C1149.92 130.033 1157.93 141.177 1164.52 151.118L1087.98 199.963ZM1499.14 302.605L1322.16 610.344L1237.64 561.737L1306.94 441.242L1203.78 381.917L1134.49 502.412L1049.97 453.805L1226.95 146.066L1311.47 194.673L1246.16 308.233L1349.31 367.558L1414.62 253.998L1499.14 302.605ZM-20.2322 515.488L156.747 207.749L241.267 256.356L64.2877 564.095L-20.2322 515.488ZM254.537 676.966C231.131 663.506 212.385 646.958 198.3 627.321C184.38 607.396 174.723 586.077 169.328 563.363C164.388 540.527 163.479 517.702 166.602 494.888C170.179 471.952 177.701 450.514 189.168 430.576C200.966 410.06 216.084 392.799 234.521 378.793C252.959 364.786 273.267 354.547 295.445 348.076C318.079 341.482 341.341 339.479 365.232 342.067C389.411 344.821 412.914 352.762 435.742 365.89C459.148 379.35 477.81 396.043 491.73 415.969C505.816 435.605 515.328 456.841 520.268 479.677C525.208 502.514 525.889 525.4 522.311 548.337C519.189 571.15 511.978 592.382 500.678 612.031C489.045 632.258 474.01 649.375 455.573 663.381C437.425 677.554 417.034 687.937 394.4 694.531C372.221 701.003 349.103 703.089 325.047 700.79C301.157 698.202 277.653 690.261 254.537 676.966ZM274.489 480.798C268.507 491.2 264.135 502.145 261.375 513.631C258.781 524.828 258.13 535.99 259.422 547.115C260.881 557.952 264.615 568.174 270.625 577.783C277.09 587.269 286.39 595.501 298.526 602.481C310.663 609.46 322.539 613.214 334.156 613.742C345.772 614.27 356.569 612.212 366.546 607.568C376.978 602.801 386.236 596.397 394.321 588.357C402.86 580.194 410.038 571.056 415.854 560.943C421.837 550.54 426.125 539.74 428.719 528.543C431.314 517.345 431.882 506.329 430.423 495.492C429.131 484.367 425.252 474.061 418.787 464.575C412.322 455.089 403.166 446.94 391.319 440.127C379.182 433.147 367.306 429.393 355.69 428.865C344.362 428.503 333.565 430.561 323.299 435.039C313.2 439.229 303.88 445.405 295.34 453.568C287.256 461.608 280.306 470.684 274.489 480.798ZM620.272 682.54L533.278 833.809L448.759 785.202L625.738 477.463L691.62 515.351L725.164 742.862L815.149 586.392L899.669 634.999L722.69 942.738L655.507 904.102L620.272 682.54Z" fill="#87C9F3"/>
</svg>
